<svg xmlns="http://www.w3.org/2000/svg" viewBox="0 0 475.4 475.4"><style>.a{fill:#fff;}</style><path d="M442.4 1H115.1c-18.2 0-33 14.8-33 33v35.8H98.3h135.4 209.4v291.5c0 0.3-0.3 0.6-0.6 0.6h-55.5v32.4h55.5c18.2 0 33-14.8 33-33V34C475.4 15.8 460.6 1 442.4 1zM319.4 53.3c-10 0-18.1-8.1-18.1-18.1 0-4.4 1.7-8.2 4.3-11.3 3.3-4 8.1-6.8 13.8-6.8 5.6 0 10.4 2.7 13.8 6.8 2.6 3.1 4.3 7 4.3 11.3C337.5 45.3 329.4 53.3 319.4 53.3zM368 53.3c-10 0-18.1-8.1-18.1-18.1 0-4.4 1.8-8.2 4.3-11.3 3.3-4 8.1-6.8 13.8-6.8 5.6 0 10.4 2.7 13.8 6.8 2.6 3.1 4.3 7 4.3 11.3C386.1 45.3 378 53.3 368 53.3zM416.6 53.3c-10 0-18.1-8.1-18.1-18.1 0-4.4 1.7-8.2 4.3-11.3 3.3-4 8.1-6.8 13.8-6.8 5.6 0 10.5 2.7 13.8 6.8 2.6 3.1 4.3 7 4.3 11.3C434.7 45.3 426.6 53.3 416.6 53.3z" class="a"/><path d="M193.8 451.3v-38.5H32.4V147.4c0-7 5.7-12.8 12.8-12.8h188.5c7 0 12.8 5.7 12.8 12.8v59.2h32.4v-59.2c0-24.9-20.3-45.2-45.2-45.2H45.2C20.2 102.3 0 122.5 0 147.4v281.6c0 24.9 20.2 45.2 45.2 45.2h155.3C197.1 468.8 193.8 461.6 193.8 451.3zM139.4 462.3c-5.5 0-10.3-2.6-13.6-6.5 -2.7-3.1-4.5-7.1-4.5-11.6 0-10 8.1-18.1 18.1-18.1 10 0 18.1 8.1 18.1 18.1 0 4.5-1.8 8.4-4.5 11.6C149.7 459.7 144.9 462.3 139.4 462.3z" class="a"/><path d="M343.5 226.9H237.2c-12.8 0-23.2 10.4-23.2 23.2v201.3c0 12.8 10.4 23.1 23.2 23.1h106.3c12.8 0 23.2-10.4 23.2-23.1V250.1C366.6 237.3 356.2 226.9 343.5 226.9zM238.4 251.2h103.9v178.2h-103.9V251.2zM278.7 450.7c0-6.4 5.2-11.6 11.6-11.6 6.4 0 11.6 5.2 11.6 11.6 0 6.4-5.2 11.6-11.6 11.6C283.9 462.3 278.7 457.1 278.7 450.7z" class="a"/></svg>